<svg width="82" height="96" xmlns="http://www.w3.org/2000/svg"><path d="M82 0v7.741c0 30.195-2.413 45.773-9.649 59.033-7.236 13.255-16.882 21.48-29.905 28.45L40.999 96l-1.445-.778C26.531 88.255 16.884 80.03 9.65 66.772 2.485 53.647.049 38.246 0 8.642L0 0h82zm-4 4H4v7.754c0 29.074 3.574 42.448 9.081 53.11 5.893 11.34 13.332 18.122 26.664 26.36L41 92l1.256-.777c13.332-8.237 20.771-15.02 26.664-26.36C74.426 54.203 78 40.83 78 11.754V4zm-3 4v7.05c0 26.431-3.285 38.588-8.345 48.28-5.415 10.31-12.25 16.475-24.502 23.964L41 88l-1.152-.706C27.596 79.805 20.76 73.64 15.345 63.33 10.285 53.638 7 41.48 7 15.05V8h68zm-63.819 3H11c0 4.727 1.45 6.362 3.445 7.454 1.994 1.09 4.893 1.636 8.881 1.636v.182c-.724.729-2.445 1.637-5.347 1.637-3.715 0-5.71-1.453-5.71-1.453h-.18c0 2.363 1.45 3.998 3.444 5.09 1.994 1.092 4.894 1.637 8.882 1.637v.183c-.726.727-2.448 1.635-5.347 1.635-3.716 0-5.71-1.453-5.71-1.453h-.181c0 2.363 1.45 4 3.445 5.092 1.994 1.09 4.893 1.635 8.881 1.635v.183c-.726.727-2.447 1.635-5.347 1.635-3.715 0-5.71-1.453-5.71-1.453h-.18c0 2.908 2.175 4.363 3.806 5.09 1.63.725 4.532 1.453 9.425 1.453v.184c-.905.91-2.627 1.818-5.528 1.818-2.9 0-5.71-.908-5.71-.908h-.18c0 1.998 2.539 3.635 3.987 4.18 1.451.547 3.083.728 4.532.728 1.45 0 3.807-.365 4.531-.728v.183c-.724 1.272-2.354 2.182-3.624 2.544-1.268.363-2.356.457-2.9.457-.543 0-1.631-.094-1.631-.094v.184s.543 1 2.175 1.818c1.45.727 2.991.908 4.08.908 1.812 0 3.353-.545 4.622-1.637h.181c-.18 1.274-1.81 4.364-3.988 4.364-.632 0-1.267-.273-1.267-1.09h-.181s-.727.363-.727 1.453c0 1.092.727 2.545 2.991 2.545 3.537 0 5.712-4 6.255-6h.181c0 3.274-1.088 6.182-1.088 6.182l.09.09c1.723-.635 3.715-2.998 4.26-5.18h.181c0 7.455-2.356 9.637-5.347 9.637-2.267 0-3.354-1.092-3.354-1.092h-.183c0 4.184 2.177 5.637 4.353 5.637 1.813 0 3.444-.908 4.35-2.543h.181c0 2.727-1.087 5.817-4.712 5.817-1.451 0-2.176-.545-2.176-.545h-.18c0 2.363 1.45 4.18 3.806 4.18 1.992 0 3.624-1.635 4.168-2.907h.182s-.726 2.362-.726 4.36c0 2.364 1.089 4.366 1.813 5.272h.183c.725-.906 1.811-2.907 1.811-5.272 0-1.998-.724-4.36-.724-4.36h.18c.544 1.272 2.176 2.907 4.17 2.907 2.356 0 3.807-1.817 3.807-4.18h-.181s-.725.545-2.175.545c-3.624 0-4.713-3.09-4.713-5.817h.181c.908 1.635 2.538 2.543 4.35 2.543 2.176 0 4.35-1.455 4.35-5.637h-.18s-1.087 1.092-3.354 1.092c-2.99 0-5.347-2.184-5.347-9.637h.181c.546 2.182 2.54 4.545 4.261 5.18l.09-.09s-1.089-2.908-1.089-6.182h.181c.545 2 2.72 6 6.255 6 2.265 0 2.99-1.453 2.99-2.545 0-1.09-.725-1.453-.725-1.453h-.181c0 .817-.635 1.09-1.268 1.09-2.175 0-3.807-3.09-3.988-4.364h.18c1.27 1.092 2.81 1.637 4.624 1.637 1.088 0 2.629-.18 4.077-.908 1.428-.716 2.023-1.571 2.149-1.774l.026-.044v-.184s-1.086.094-1.631.094c-.546 0-1.632-.094-2.902-.457-1.267-.362-2.9-1.27-3.624-2.544v-.183c.725.365 3.08.728 4.532.728 1.45 0 3.082-.181 4.531-.728 1.45-.545 3.988-2.182 3.988-4.18h-.181s-2.81.908-5.71.908-4.622-.91-5.528-1.818h-.007v-.18c4.893 0 7.793-.727 9.425-1.453 1.631-.727 3.807-2.18 3.807-5.09h-.182s-1.994 1.453-5.71 1.453c-2.897 0-4.62-.908-5.346-1.635v-.184c3.988 0 6.887-.545 8.881-1.635 1.996-1.091 3.445-2.728 3.445-5.092h-.181s-1.994 1.454-5.71 1.454c-2.897 0-4.62-.909-5.347-1.635v-.184c3.988 0 6.888-.545 8.882-1.637 1.996-1.091 3.445-2.726 3.445-5.09h-.182s-1.994 1.454-5.71 1.454c-2.899 0-4.622-.909-5.346-1.637v-.182c3.988 0 6.887-.547 8.881-1.637C69.551 17.366 71 15.731 71 11.004h-.181c-3.807 2.91-6.436 3.455-9.698 3.455-3.715 0-6.525-.729-7.612-.729-.997 0-2.085.545-2.085 2 0 1.546 1.27 3.546 1.27 7.364 0 5-2.176 8.272-5.075 8.272 0 0-.544 1.455-2.538 1.455-.907 0-1.27-.273-1.27-.273h-.18c-.452 2.545-2.536 3.545-2.536 3.545h-.183s-2.085-1-2.537-3.545h-.181s-.364.273-1.27.273c-1.992 0-2.537-1.455-2.537-1.455-2.9 0-5.075-3.271-5.075-8.272 0-3.818 1.27-5.818 1.27-7.363 0-1.456-1.087-2-2.084-2-1.086 0-3.898.728-7.612.728-3.262 0-5.89-.545-9.705-3.459zm37.8 4.103h-.18c-.537.729-1.614 1.093-2.51 1.093-1.257 0-4.216-.728-6.548-.728-1.166 0-2.062.182-2.062.182l-.719 1.094c-1.703.362-3.406 1-4.125 1.457-.538.364-.717.726-.717 1.456 0 1.276.538 2.007.896 2.37h.18c0-1.184.537-1.458 1.165-1.458.359 0 .807.094 1.166.184l.717.182c1.254.364 1.435 1.095 1.435 1.64 0 .73-.36 2.004-.718 3.098-.357 1.094-.717 2.095-1.434 3.827 0 0 .449 1.277 1.794 1.277.807 0 1.615-.549 1.973-1.641h.18c0 2.733 1.614 4.554 1.614 4.554h.181s1.613-1.821 1.613-4.554h.18c.358 1.094 1.167 1.642 1.97 1.64 1.346 0 1.795-1.276 1.795-1.276-.538-1.274-1.255-4.283-1.255-5.376 0-.914.538-1.368 1.166-1.368.628 0 1.077.548 1.166.912h.179c.36-.184 1.077-.912 1.077-2.188 0-1.823-1.254-2.915-3.586-2.915V18.2c2.33 0 3.407-.91 3.407-2.551v-.547zm-7.741 1.96v.166c0 .492-.274.983-1.198.983-.924 0-1.202-.491-1.202-.983v-.166h2.4z" fill="#FFF" fill-rule="nonzero"/></svg>