<svg width="682" height="227" xmlns="http://www.w3.org/2000/svg"><g fill="#FFF" fill-rule="evenodd"><path d="M194 0v18.305c0 71.399-5.708 108.234-22.827 139.587-17.12 31.344-39.942 50.794-70.752 67.274L96.998 227l-3.419-1.838c-30.81-16.476-53.633-35.926-70.752-67.275C5.708 126.54 0 89.7 0 18.305V0h194zm-9 9H10v18.329c0 68.718 8.453 100.33 21.476 125.53 13.935 26.804 31.528 42.835 63.057 62.305L97.498 217l2.97-1.836c31.528-19.47 49.12-35.5 63.056-62.305C176.547 127.66 185 96.052 185 27.33V9zm-7 9v16.743c0 62.775-7.728 91.648-19.635 114.667-12.741 24.484-28.826 39.127-57.652 56.913L97.998 208l-2.711-1.677c-28.826-17.786-44.91-32.429-57.652-56.913C25.728 126.39 18 97.514 18 34.743V18h160zM25.429 27H25c0 11.142 3.433 14.996 8.153 17.57 4.719 2.568 11.581 3.857 21.02 3.857v.429c-1.715 1.717-5.79 3.858-12.656 3.858-8.793 0-13.512-3.426-13.512-3.426h-.429c0 5.571 3.433 9.425 8.153 11.998 4.719 2.574 11.581 3.858 21.02 3.858v.433c-1.72 1.713-5.793 3.854-12.656 3.854-8.793 0-13.512-3.426-13.512-3.426h-.429c0 5.571 3.434 9.43 8.153 12.003 4.719 2.57 11.581 3.854 21.02 3.854v.432c-1.72 1.713-5.793 3.854-12.656 3.854-8.793 0-13.512-3.426-13.512-3.426h-.429c0 6.856 5.148 10.286 9.01 11.999 3.858 1.708 10.724 3.425 22.306 3.425v.433c-2.143 2.145-6.217 4.286-13.084 4.286-6.862 0-13.512-2.14-13.512-2.14h-.43c0 4.71 6.01 8.568 9.44 9.852 3.433 1.29 7.295 1.717 10.724 1.717 3.433 0 9.01-.86 10.724-1.717v.433c-1.715 2.997-5.572 5.142-8.577 5.994-3 .857-5.576 1.078-6.862 1.078-1.286 0-3.862-.221-3.862-.221v.432s1.286 2.358 5.148 4.287c3.433 1.713 7.078 2.14 9.655 2.14 4.29 0 7.936-1.284 10.94-3.857h.429c-.429 3.001-4.286 10.285-9.439 10.285-1.497 0-3-.644-3-2.57h-.428s-1.72.857-1.72 3.426c0 2.574 1.72 6 7.08 6 8.369 0 13.516-9.43 14.802-14.144h.429c0 7.716-2.576 14.572-2.576 14.572l.212.212c4.078-1.497 8.793-7.068 10.083-12.21h.429c0 17.573-5.576 22.716-12.655 22.716-5.365 0-7.936-2.574-7.936-2.574h-.433c0 9.862 5.152 13.287 10.3 13.287 4.29 0 8.152-2.14 10.295-5.994h.429c0 6.427-2.572 13.71-11.153 13.71-3.433 0-5.148-1.284-5.148-1.284h-.428c0 5.571 3.433 9.853 9.01 9.853 4.714 0 8.576-3.854 9.862-6.851h.433s-1.719 5.566-1.719 10.277c0 5.57 2.576 10.29 4.29 12.426h.434c1.714-2.137 4.286-6.851 4.286-12.426 0-4.71-1.715-10.277-1.715-10.277h.43c1.285 2.997 5.147 6.851 9.866 6.851 5.577 0 9.01-4.282 9.01-9.853h-.429s-1.714 1.285-5.148 1.285c-8.576 0-11.152-7.284-11.152-13.711h.428c2.148 3.853 6.005 5.994 10.296 5.994 5.148 0 10.295-3.43 10.295-13.287h-.428s-2.572 2.574-7.936 2.574c-7.079 0-12.655-5.147-12.655-22.717h.428c1.29 5.143 6.01 10.714 10.084 12.21l.212-.211s-2.576-6.856-2.576-14.572h.428c1.29 4.714 6.438 14.144 14.803 14.144 5.36 0 7.079-3.426 7.079-6 0-2.569-1.72-3.425-1.72-3.425h-.428c0 1.925-1.502 2.569-3 2.569-5.148 0-9.01-7.284-9.438-10.285h.428c3.005 2.573 6.65 3.858 10.941 3.858 2.576 0 6.222-.424 9.65-2.141 3.862-1.93 5.148-4.287 5.148-4.287v-.432s-2.571.22-3.862.22c-1.29 0-3.862-.22-6.866-1.077-3-.852-6.863-2.993-8.577-5.994v-.433c1.714.86 7.29 1.717 10.724 1.717 3.433 0 7.295-.428 10.724-1.717 3.434-1.284 9.439-5.143 9.439-9.853h-.429s-6.65 2.141-13.512 2.141c-6.863 0-10.941-2.145-13.084-4.286h-.018v-.424c11.582 0 18.444-1.713 22.306-3.425 3.862-1.713 9.01-5.139 9.01-11.999h-.429s-4.72 3.426-13.512 3.426c-6.858 0-10.937-2.141-12.656-3.854v-.432c9.439 0 16.301-1.285 21.02-3.854 4.724-2.574 8.153-6.432 8.153-12.003h-.429s-4.719 3.426-13.512 3.426c-6.858 0-10.937-2.141-12.656-3.854v-.433c9.439 0 16.301-1.284 21.02-3.858 4.724-2.573 8.153-6.427 8.153-11.998h-.429s-4.719 3.425-13.512 3.425c-6.862 0-10.94-2.14-12.655-3.858v-.428c9.438 0 16.3-1.289 21.02-3.858 4.723-2.574 8.152-6.427 8.152-17.57h-.429c-9.01 6.86-15.23 8.145-22.95 8.145-8.794 0-15.444-1.717-18.016-1.717-2.36 0-4.935 1.285-4.935 4.715 0 3.642 3.004 8.356 3.004 17.357 0 11.786-5.147 19.498-12.01 19.498 0 0-1.285 3.43-6.005 3.43-2.147 0-3.004-.644-3.004-.644h-.429c-1.07 5.999-6 8.356-6 8.356h-.434s-4.935-2.357-6.005-8.356h-.428s-.862.644-3.005.644c-4.715 0-6.005-3.43-6.005-3.43-6.862 0-12.01-7.712-12.01-19.498 0-9 3.005-13.715 3.005-17.357 0-3.43-2.572-4.715-4.932-4.715-2.571 0-9.226 1.717-18.015 1.717-7.72 0-13.94-1.284-22.968-8.153zm89.459 9.672h-.424c-1.273 1.717-3.822 2.575-5.943 2.575-2.973 0-9.978-1.716-15.496-1.716-2.759 0-4.88.429-4.88.429l-1.7 2.58c-4.032.853-8.064 2.358-9.764 3.433-1.273.858-1.697 1.712-1.697 3.433 0 3.009 1.272 4.73 2.12 5.588h.425c0-2.792 1.272-3.438 2.759-3.438.848 0 1.91.221 2.759.434l1.697.429c2.968.858 3.397 2.58 3.397 3.867 0 1.717-.853 4.72-1.7 7.3-.845 2.58-1.697 4.938-3.394 9.022 0 0 1.063 3.008 4.246 3.008 1.91 0 3.821-1.292 4.67-3.867h.424c0 6.442 3.821 10.734 3.821 10.734h.429s3.817-4.292 3.817-10.734h.424c.848 2.58 2.764 3.872 4.666 3.867 3.183 0 4.245-3.008 4.245-3.008-1.272-3.005-2.968-10.097-2.968-12.672 0-2.155 1.272-3.225 2.759-3.225 1.486 0 2.549 1.292 2.759 2.15h.424c.852-.434 2.549-2.15 2.549-5.159 0-4.296-2.969-6.871-8.487-6.871v-.858c5.514 0 8.063-2.146 8.063-6.013v-1.288zm-18.32 4.62v.39c0 1.16-.648 2.319-2.835 2.319-2.188 0-2.845-1.16-2.845-2.318v-.39h5.68zM226.378 126.574c1.065-1.988 1.633-3.053 2.769-4.615l7.881-11.502 7.526 10.863c1.491 2.272 2.201 3.408 3.195 5.254h7.029c-4.402-5.822-4.402-5.822-5.112-6.745l-9.372-13.064 8.946-12.567c1.207-1.704 2.698-3.621 4.331-5.893h-6.816c-.639 1.42-1.562 2.982-2.769 4.757l-6.887 10.011-6.958-10.011c-1.349-1.917-2.059-3.124-2.769-4.757h-6.958c3.266 4.331 3.834 5.041 4.26 5.68l9.159 12.78-9.869 13.632c-1.562 2.272-3.479 4.757-4.615 6.177h7.029z" fill-rule="nonzero"/><path d="M326.681 47c19.575 0 27.324 4.308 28.594 5.208.464.33.602.82.602 1.225l-3.767 15.852c0 .867-.909 1.838-1.892 1.54-3.128-.962-8.042-2.957-19.451-2.957-13.18 0-27.218 3.876-27.218 33.335 0 29.453 13.482 32.956 23.132 32.956 8.18 0 11.14-1.003 11.14-1.003v-20.384h-13.178a1.575 1.575 0 01-1.578-1.57V94.794c0-.867.707-1.569 1.578-1.569h33.779c.872 0 1.578.702 1.578 1.57v51.172c0 .294-.05.935-.512 1.189 0 0-11.21 7.844-29.688 7.844-22.317 0-48.8-6.828-48.8-52.648C281 56.53 304.132 47 326.681 47zm234.875 36c.86 0 1.558.713 1.558 1.59v42.555c0 6.662 1.79 9.75 8.538 9.75 6.75 0 11.506-3.508 11.506-3.508V84.59c0-.877.699-1.59 1.557-1.59h18.717c.863 0 1.561.713 1.561 1.59l.007 66.805c0 .874-.703 1.588-1.56 1.588l-12.084.055c-.605 0-1.164-.433-1.377-.861-.215-.43-.689-4.055-.689-4.055S579.336 155 566.988 155C551.94 155 541 150.158 541 130.367V84.59c0-.877.703-1.59 1.56-1.59zm74.142-32c.869 0 1.573.704 1.573 1.577v33.489s7.31-4.753 18.057-4.753c10.755 0 26.672 3.983 26.672 34.468 0 30.482-9.966 39.219-27.344 39.219-14.458 0-22.254-7.006-22.608-7.332l-.013-.012s-.475 4.03-.806 4.56c-.334.535-.786.84-1.384.84h-13.267a1.58 1.58 0 01-1.578-1.583V52.577c0-.873.706-1.577 1.575-1.577zM431.841 63c.817 0 1.182.356 1.182 1.072l.021 18.87h14.133c.861 0 1.559.708 1.559 1.588v15.349c0 .881-.698 1.592-1.559 1.592h-14.134l.001 26.782v1.234c0 4.223 2.351 7.485 9.294 7.485 2.17 0 4.275-.338 5.1-.338.827 0 1.562.712 1.562 1.59l-.017 13.48c0 .636-.325 1.222-.884 1.43-.925.345-6.53 1.866-11.217 1.866-10.253 0-25.45-2.15-25.45-24.048v-29.48h-9.874c-.862 0-1.558-.712-1.558-1.593V87.625c0-.723.479-1.329 1.128-1.519.653-.19 10.304-2.545 10.304-2.545v-19.5c0-.728.401-1.061 1.151-1.061zM478.6 51c.87 0 1.57.704 1.57 1.576V89.08h29.661l-.005-35.992v-.512c0-.872.707-1.576 1.575-1.576h19.03c.872 0 1.569.704 1.569 1.576v98.842a1.576 1.576 0 01-1.571 1.582h-19.073a1.58 1.58 0 01-1.577-1.582l.052-41.97v-.307H480.17v42.277c0 .873-.7 1.582-1.57 1.582h-19.028a1.58 1.58 0 01-1.572-1.582V52.576c0-.872.707-1.576 1.572-1.576zm-87.16 32c.862 0 1.56.712 1.56 1.584v65.878c0 1.619-.456 2.538-2.316 2.538h-16.942c-1.547 0-2.742-.575-2.742-2.506V84.768c0-.872.772-1.768 1.634-1.768zm268.57 33.966c0-16.11-6.566-18.15-13.38-17.546-5.389.477-9.78 3.145-9.78 3.145v31.319s4.452 2.952 11.015 3.15c9.182.274 12.144-3.08 12.144-20.068zM382 53c6.628 0 12 5.585 12 12.497C394 72.4 388.628 78 382 78c-6.623 0-12-5.6-12-12.503C370 58.585 375.377 53 382 53z"/></g></svg>